<svg width="900" height="900" viewBox="0 0 900 900" fill="none" xmlns="http://www.w3.org/2000/svg">
<rect width="900" height="900" rx="200" fill="#007FB6"/>
<path d="M617 100H267C202 100 147 160 124.5 250H117C87 250 67 282.5 67 325C67 367.5 87 400 117 400H124.5C144.5 490 202 550 267 550C307 550 339.5 530 367 492.5V775C367 790 377 800 392 800H742C757 800 767 790 767 775V325C767 200 702 100 617 100ZM267 500C229.5 500 194.5 460 177 400H242C272 400 292 367.5 292 325C292 282.5 272 250 242 250H177C194.5 190 229.5 150 267 150C322 150 367 230 367 325C367 420 322 500 267 500Z" fill="#E8EAED"/>
<path d="M471.495 760L498.47 630.592L408 543.553L527.52 532.039L574 410L620.48 532.039L740 543.553L649.53 630.592L676.505 760L574 691.382L471.495 760Z" fill="#007FB6"/>
</svg>
